<svg xmlns="http://www.w3.org/2000/svg" version="1.1" xmlns:xlink="http://www.w3.org/1999/xlink" xmlns:svgjs="http://svgjs.dev/svgjs" viewBox="0 0 800 800"><defs><filter id="llleaves-blur-2" x="-100%" y="-100%" width="400%" height="400%"><feGaussianBlur in="SourceGraphic" stdDeviation="2"></feGaussianBlur></filter><filter id="llleaves-blur-3" x="-100%" y="-100%" width="400%" height="400%"><feGaussianBlur in="SourceGraphic" stdDeviation="4"></feGaussianBlur></filter><filter id="llleaves-blur-4" x="-100%" y="-100%" width="400%" height="400%"><feGaussianBlur in="SourceGraphic" stdDeviation="12"></feGaussianBlur></filter></defs><g fill="hsl(205, 69%, 50%)"><path d="M627 644H677C705 644 727 666 727 694H677C649 694 627 672 627 644Z " transform="matrix(-0.21138811161013032,0.21889879754723435,-0.21889879754723435,-0.21138811161013032,966.553047119158,662.2241607276995)" filter="url(#llleaves-blur-2)" opacity="0.47"></path><path d="M206 29H256C284 29 306 51 306 79H256C228 79 206 57 206 29Z " transform="matrix(-0.32017860398804837,0.1229050508588587,-0.1229050508588587,-0.32017860398804837,344.6025953673187,39.825951595486785)" filter="url(#llleaves-blur-2)" opacity="0.53"></path><path d="M629 528H679C707 528 729 550 729 578H679C651 578 629 556 629 528Z " transform="matrix(-0.21138811161013032,0.21889879754723435,-0.21889879754723435,-0.21138811161013032,943.5835628268991,521.2653421858299)" filter="url(#llleaves-blur-2)" opacity="0.47"></path><path d="M694 721H744C772 721 794 743 794 771H744C716 771 694 749 694 721Z " transform="matrix(-0.0865592720703905,0.25138637951052933,-0.25138637951052933,-0.0865592720703905,995.9343375352253,623.5417506086775)" filter="url(#llleaves-blur-3)" opacity="0.41"></path><path d="M711 587H761C789 587 811 609 811 637H761C733 637 711 615 711 587Z " transform="matrix(-0.057941263679808626,0.25097118575462807,-0.25097118575462807,-0.057941263679808626,958.6876673421667,456.47098101277095)" filter="url(#llleaves-blur-3)" opacity="0.39"></path><path d="M466 224H516C544 224 566 246 566 274H516C488 274 466 252 466 224Z " transform="matrix(-0.37898727805506505,-0.01986188161939031,0.01986188161939031,-0.37898727805506505,706.6118269531854,353.61656315131654)" filter="url(#llleaves-blur-2)" opacity="0.58"></path><path d="M381 95H431C459 95 481 117 481 145H431C403 145 381 123 381 95Z " transform="matrix(-0.36808835009225543,0.025739244835498255,-0.025739244835498255,-0.36808835009225543,592.7347882700219,153.0769874869709)" filter="url(#llleaves-blur-2)" opacity="0.57"></path><path d="M435 495H485C513 495 535 517 535 545H485C457 545 435 523 435 495Z " transform="matrix(-0.3804391522597835,-0.02660289705601822,0.02660289705601822,-0.3804391522597835,655.6794823768655,730.7307642472563)" filter="url(#llleaves-blur-2)" opacity="0.58"></path><path d="M530 625H580C608 625 630 647 630 675H580C552 675 530 653 530 625Z " transform="matrix(-0.3540751487264642,0.0624330019188381,-0.0624330019188381,-0.3540751487264642,825.9450375085939,843.9377055592755)" filter="url(#llleaves-blur-2)" opacity="0.55"></path><path d="M618 19H668C696 19 718 41 718 69H668C640 69 618 47 618 19Z " transform="matrix(-0.2404640762666286,0.20177331770671347,-0.20177331770671347,-0.2404640762666286,837.5080289252032,-80.20415687235293)" filter="url(#llleaves-blur-2)" opacity="0.48"></path><path d="M560 730H610C638 730 660 752 660 780H610C582 780 560 758 560 730Z " transform="matrix(-0.320522932366449,0.12303722613956877,-0.12303722613956877,-0.320522932366449,898.4120944789083,921.9421059915321)" filter="url(#llleaves-blur-2)" opacity="0.53"></path><path d="M22 744H72C100 744 122 766 122 794H72C44 794 22 772 22 744Z " transform="matrix(0.05243057595885205,0.21028755439006652,-0.21028755439006652,0.05243057595885205,229.9361278569238,713.5401831715579)" filter="url(#llleaves-blur-3)" opacity="0.33"></path><path d="M315 244H365C393 244 415 266 415 294H365C337 294 315 272 315 244Z " transform="matrix(-0.33756482142236044,0.09679515493735805,-0.09679515493735805,-0.33756482142236044,514.2490564973109,324.47470541047926)" filter="url(#llleaves-blur-2)" opacity="0.54"></path><path d="M-10 673H40C68 673 90 695 90 723H40C12 723 -10 701 -10 673Z " transform="matrix(0.062065858519535486,0.20300827585708883,-0.20300827585708883,0.062065858519535486,179.2171422074666,646.5576997190807)" filter="url(#llleaves-blur-3)" opacity="0.32"></path><path d="M584 218H634C662 218 684 240 684 268H634C606 268 584 246 584 218Z " transform="matrix(-0.27210738241127413,0.1767086003029801,-0.1767086003029801,-0.27210738241127413,849.456270322372,197.0888413338502)" filter="url(#llleaves-blur-2)" opacity="0.50"></path><path d="M421 19H471C499 19 521 41 521 69H471C443 69 421 47 421 19Z " transform="matrix(-0.3852660759273578,-0.08189083242722074,0.08189083242722074,-0.3852660759273578,648.8571251349878,99.5222894140247)" filter="url(#llleaves-blur-2)" opacity="0.60"></path><path d="M342 531H392C420 531 442 553 442 581H392C364 581 342 559 342 531Z " transform="matrix(-0.3633341759786491,0.03818796071212072,-0.03818796071212072,-0.3633341759786491,555.6595031395696,743.0441212449775)" filter="url(#llleaves-blur-2)" opacity="0.56"></path><path d="M249 564H299C327 564 349 586 349 614H299C271 614 249 592 249 564Z " transform="matrix(-0.2449279381903291,0.19833873362990223,-0.19833873362990223,-0.2449279381903291,489.0549676269208,673.9592742387631)" filter="url(#llleaves-blur-2)" opacity="0.48"></path><path d="M384 309H434C462 309 484 331 484 359H434C406 359 384 337 384 309Z " transform="matrix(-0.378432571264755,-0.01983281066835694,0.01983281066835694,-0.378432571264755,591.6155771656724,469.0039186324951)" filter="url(#llleaves-blur-2)" opacity="0.58"></path><path d="M490 127H540C568 127 590 149 590 177H540C512 177 490 155 490 127Z " transform="matrix(-0.3661073644948844,0.03203024402665593,-0.03203024402665593,-0.3661073644948844,742.5665739192891,190.35198762882825)" filter="url(#llleaves-blur-2)" opacity="0.56"></path><path d="M230 216H280C308 216 330 238 330 266H280C252 266 230 244 230 216Z " transform="matrix(-0.21213415378765604,0.21967134683742856,-0.21967134683742856,-0.21213415378765604,392.33835764836397,230.6163539483451)" filter="url(#llleaves-blur-2)" opacity="0.47"></path><path d="M436 721H486C514 721 536 743 536 771H486C458 771 436 749 436 721Z " transform="matrix(-0.3804391522597835,-0.02660289705601822,0.02660289705601822,-0.3804391522597835,651.0476667944652,1042.7366155550233)" filter="url(#llleaves-blur-2)" opacity="0.58"></path><path d="M178 385H228C256 385 278 407 278 435H228C200 435 178 413 178 385Z " transform="matrix(-0.11677168366253114,0.2504176837338511,-0.2504176837338511,-0.11677168366253114,357.295194205936,400.78115841031973)" filter="url(#llleaves-blur-3)" opacity="0.42"></path><path d="M103 213H153C181 213 203 235 203 263H153C125 263 103 241 103 213Z " transform="matrix(-0.012699269210483914,0.24231649163950286,-0.24231649163950286,-0.012699269210483914,212.61431319940573,203.94800285125123)" filter="url(#llleaves-blur-3)" opacity="0.37"></path><path d="M87 425H137C165 425 187 447 187 475H137C109 475 87 453 87 425Z " transform="matrix(0.004115786989046616,0.23579327868286135,-0.23579327868286135,0.004115786989046616,242.54311258978828,415.844216675377)" filter="url(#llleaves-blur-3)" opacity="0.36"></path><path d="M343 418H393C421 418 443 440 443 468H393C365 468 343 446 343 418Z " transform="matrix(-0.3633341759786491,0.03818796071212072,-0.03818796071212072,-0.3633341759786491,552.7075977550786,588.9491713986781)" filter="url(#llleaves-blur-2)" opacity="0.56"></path><path d="M-4 418H46C74 418 96 440 96 468H46C18 468 -4 446 -4 418Z " transform="matrix(0.062065858519535486,0.20300827585708883,-0.20300827585708883,0.062065858519535486,133.0776367127917,406.1664439864197)" filter="url(#llleaves-blur-3)" opacity="0.32"></path><path d="M434 395H484C512 395 534 417 534 445H484C456 445 434 423 434 395Z " transform="matrix(-0.3804391522597835,-0.02660289705601822,0.02660289705601822,-0.3804391522597835,656.9593329302076,592.6602461242219)" filter="url(#llleaves-blur-2)" opacity="0.58"></path><path d="M170 493H220C248 493 270 515 270 543H220C192 543 170 521 170 493Z " transform="matrix(-0.11677168366253114,0.2504176837338511,-0.2504176837338511,-0.11677168366253114,375.40613057989174,523.3958417157439)" filter="url(#llleaves-blur-3)" opacity="0.42"></path><path d="M280 124H330C358 124 380 146 380 174H330C302 174 280 152 280 124Z " transform="matrix(-0.29366315671895654,0.15614347015895227,-0.15614347015895227,-0.29366315671895654,450.1742187709395,141.22846519867028)" filter="url(#llleaves-blur-2)" opacity="0.51"></path><path d="M625 414H675C703 414 725 436 725 464H675C647 464 625 442 625 414Z " transform="matrix(-0.21138811161013032,0.21889879754723435,-0.21889879754723435,-0.21138811161013032,913.7835474600738,384.04269265246404)" filter="url(#llleaves-blur-2)" opacity="0.47"></path><path d="M341 640H391C419 640 441 662 441 690H391C363 690 341 668 341 640Z " transform="matrix(-0.3633341759786491,0.03818796071212072,-0.03818796071212072,-0.3633341759786491,558.458656681212,891.6857343873626)" filter="url(#llleaves-blur-2)" opacity="0.56"></path><path d="M176 285H226C254 285 276 307 276 335H226C198 335 176 313 176 285Z " transform="matrix(-0.11677168366253114,0.2504176837338511,-0.2504176837338511,-0.11677168366253114,330.01988246522586,289.6048254115343)" filter="url(#llleaves-blur-3)" opacity="0.42"></path></g><g fill="none" stroke-width="3" stroke="hsl(205, 69%, 50%)"><path d="M436 604H486C514 604 536 626 536 654H486C458 654 436 632 436 604Z " transform="matrix(-0.3804391522597835,-0.02660289705601822,0.02660289705601822,-0.3804391522597835,654.1602057500193,881.2252347406286)" filter="url(#llleaves-blur-2)" opacity="0.58"></path><path d="M308 734H358C386 734 408 756 408 784H358C330 784 308 762 308 734Z " transform="matrix(-0.33756482142236044,0.09679515493735805,-0.09679515493735805,-0.33756482142236044,552.3157286666598,980.5590339919975)" filter="url(#llleaves-blur-2)" opacity="0.54"></path><path d="M308 21H358C386 21 408 43 408 71H358C330 71 308 49 308 21Z " transform="matrix(-0.3761607635692868,-0.006565910551549685,0.006565910551549685,-0.3761607635692868,492.3635214724334,65.65399110164198)" filter="url(#llleaves-blur-2)" opacity="0.58"></path><path d="M87 321H137C165 321 187 343 187 371H137C109 371 87 349 87 321Z " transform="matrix(0.004115786989046616,0.23579327868286135,-0.23579327868286135,0.004115786989046616,218.02061160677064,312.27225852223785)" filter="url(#llleaves-blur-3)" opacity="0.36"></path><path d="M2 251H52C80 251 102 273 102 301H52C24 301 2 279 2 251Z " transform="matrix(0.0554095461791789,0.20679124156502962,-0.20679124156502962,0.0554095461791789,106.19308627063089,249.95382069316508)" filter="url(#llleaves-blur-3)" opacity="0.33"></path><path d="M-4 88H46C74 88 96 110 96 138H46C18 138 -4 116 -4 88Z " transform="matrix(-0.09170335240543781,0.25195289002223015,-0.25195289002223015,-0.09170335240543781,78.68903078316214,111.77264588079188)" filter="url(#llleaves-blur-3)" opacity="0.41"></path><path d="M82 528H132C160 528 182 550 182 578H132C104 578 82 556 82 528Z " transform="matrix(0.02002762895645429,0.22891684647257018,-0.22891684647257018,0.02002762895645429,255.94736907707937,511.7076974527015)" filter="url(#llleaves-blur-3)" opacity="0.35"></path><path d="M710 447H760C788 447 810 469 810 497H760C732 497 710 475 710 447Z " transform="matrix(-0.057941263679808626,0.25097118575462807,-0.25097118575462807,-0.057941263679808626,922.493760072839,308.61017528335236)" filter="url(#llleaves-blur-3)" opacity="0.39"></path><path d="M171 736H221C249 736 271 758 271 786H221C193 786 171 764 171 736Z " transform="matrix(-0.11677168366253114,0.2504176837338511,-0.2504176837338511,-0.11677168366253114,437.3743994108801,794.5209431620051)" filter="url(#llleaves-blur-3)" opacity="0.42"></path><path d="M-5 335H45C73 335 95 357 95 385H45C17 385 -5 363 -5 335Z " transform="matrix(0.062065858519535486,0.20300827585708883,-0.20300827585708883,0.062065858519535486,115.29001567517288,328.5209185193982)" filter="url(#llleaves-blur-3)" opacity="0.32"></path><path d="M699 181H749C777 181 799 203 799 231H749C721 231 699 209 699 181Z " transform="matrix(-0.0865592720703905,0.25138637951052933,-0.25138637951052933,-0.0865592720703905,865.6184889598915,35.54281179311397)" filter="url(#llleaves-blur-3)" opacity="0.41"></path><path d="M-7 505H43C71 505 93 527 93 555H43C15 555 -7 533 -7 505Z " transform="matrix(0.062065858519535486,0.20300827585708883,-0.20300827585708883,0.062065858519535486,147.925554287917,488.3757391227914)" filter="url(#llleaves-blur-3)" opacity="0.32"></path><path d="M599 316H649C677 316 699 338 699 366H649C621 366 599 344 599 316Z " transform="matrix(-0.27210738241127413,0.1767086003029801,-0.1767086003029801,-0.27210738241127413,885.8553238882331,319.1047358056104)" filter="url(#llleaves-blur-2)" opacity="0.50"></path><path d="M520 28H570C598 28 620 50 620 78H570C542 78 520 56 520 28Z " transform="matrix(-0.3665621278583496,0.03207003066554605,-0.03207003066554605,-0.3665621278583496,780.6401245045331,54.14787529713128)" filter="url(#llleaves-blur-2)" opacity="0.56"></path><path d="M179 133H229C257 133 279 155 279 183H229C201 183 179 161 179 133Z " transform="matrix(-0.1367109830210267,0.246633142040033,-0.246633142040033,-0.1367109830210267,299.27485155414035,123.12134579015466)" filter="url(#llleaves-blur-3)" opacity="0.43"></path><path d="M528 412H578C606 412 628 434 628 462H578C550 462 528 440 528 412Z " transform="matrix(-0.3540751487264642,0.0624330019188381,-0.0624330019188381,-0.3540751487264642,809.9386578024286,555.6445648843765)" filter="url(#llleaves-blur-2)" opacity="0.55"></path><path d="M257 454H307C335 454 357 476 357 504H307C279 504 257 482 257 454Z " transform="matrix(-0.2723789043102798,0.17688492868591377,-0.17688492868591377,-0.2723789043102798,475.3482044638086,555.1658220580484)" filter="url(#llleaves-blur-2)" opacity="0.50"></path><path d="M89 112H139C167 112 189 134 189 162H139C111 162 89 140 89 112Z " transform="matrix(-0.05804569936552145,0.2514235464077075,-0.2514235464077075,-0.05804569936552145,181.51337806966342,110.0043878624051)" filter="url(#llleaves-blur-3)" opacity="0.39"></path><path d="M11 594H61C89 594 111 616 111 644H61C33 644 11 622 11 594Z " transform="matrix(0.0554095461791789,0.20679124156502962,-0.20679124156502962,0.0554095461791789,185.62379621182342,572.0872251796214)" filter="url(#llleaves-blur-3)" opacity="0.33"></path><path d="M4 12H54C82 12 104 34 104 62H54C26 62 4 40 4 12Z " transform="matrix(-0.30569147928304863,0.1425462778224157,-0.1425462778224157,-0.30569147928304863,75.781552160714,40.61308573106235)" filter="url(#llleaves-blur-2)" opacity="0.52"></path><path d="M380 183H430C458 183 480 205 480 233H430C402 233 380 211 380 183Z " transform="matrix(-0.37556908197131167,4.599394740948768e-17,-4.599394740948768e-17,-0.37556908197131167,591.494705247664,286.1183690500328)" filter="url(#llleaves-blur-2)" opacity="0.58"></path><path d="M93 677H143C171 677 193 699 193 727H143C115 727 93 705 93 677Z " transform="matrix(0.004115786989046616,0.23579327868286135,-0.23579327868286135,0.004115786989046616,307.938324095935,665.3922786820401)" filter="url(#llleaves-blur-3)" opacity="0.36"></path><path d="M232 663H282C310 663 332 685 332 713H282C254 713 232 691 232 663Z " transform="matrix(-0.21213415378765604,0.21967134683742856,-0.21967134683742856,-0.21213415378765604,492.95571799226985,772.0009779977526)" filter="url(#llleaves-blur-2)" opacity="0.47"></path><path d="M107 21H157C185 21 207 43 207 71H157C129 71 107 49 107 21Z " transform="matrix(-0.31989491799388114,0.12279615400845463,-0.12279615400845463,-0.31989491799388114,212.87212520942822,41.436170048391155)" filter="url(#llleaves-blur-2)" opacity="0.53"></path><path d="M707 46H757C785 46 807 68 807 96H757C729 96 707 74 707 46Z " transform="matrix(-0.012684927983402813,0.2420428447252986,-0.2420428447252986,-0.012684927983402813,783.7875324589321,-111.32580357022945)" filter="url(#llleaves-blur-3)" opacity="0.37"></path><path d="M271 337H321C349 337 371 359 371 387H321C293 387 271 365 271 337Z " transform="matrix(-0.29766179217715005,0.15166625845637968,-0.15166625845637968,-0.29766179217715005,471.4526208500746,421.06869980363047)" filter="url(#llleaves-blur-2)" opacity="0.51"></path><path d="M498 310H548C576 310 598 332 598 360H548C520 360 498 338 498 310Z " transform="matrix(-0.37166419741320234,0.012978799766201761,-0.012978799766201761,-0.37166419741320234,756.0198781041124,452.3951238615442)" filter="url(#llleaves-blur-2)" opacity="0.57"></path><path d="M146 600H196C224 600 246 622 246 650H196C168 650 146 628 146 600Z " transform="matrix(-0.06250724981069268,0.25070288574848815,-0.25070288574848815,-0.06250724981069268,364.94072455570085,614.9292655249792)" filter="url(#llleaves-blur-3)" opacity="0.39"></path><path d="M532 516H582C610 516 632 538 632 566H582C554 566 532 544 532 516Z " transform="matrix(-0.3540751487264642,0.0624330019188381,-0.0624330019188381,-0.3540751487264642,821.8479905968934,696.2186483442533)" filter="url(#llleaves-blur-2)" opacity="0.55"></path><path d="M701 308H751C779 308 801 330 801 358H751C723 358 701 336 701 308Z " transform="matrix(-0.057941263679808626,0.25097118575462807,-0.25097118575462807,-0.057941263679808626,878.0872938798273,163.8150803036506)" filter="url(#llleaves-blur-3)" opacity="0.39"></path><path d="M1 169H51C79 169 101 191 101 219H51C23 219 1 197 1 169Z " transform="matrix(0.0554095461791789,0.20679124156502962,-0.20679124156502962,0.0554095461791789,88.29161400847762,172.7041947214228)" filter="url(#llleaves-blur-3)" opacity="0.33"></path><path d="M605 118H655C683 118 705 140 705 168H655C627 168 605 146 605 118Z " transform="matrix(-0.23062890293905217,0.20765919693829665,-0.20765919693829665,-0.23062890293905217,835.7571965872557,39.963159125700145)" filter="url(#llleaves-blur-2)" opacity="0.48"></path></g></svg>